<mxfile host="app.diagrams.net" agent="Mozilla/5.0 (Windows NT 10.0; Win64; x64) AppleWebKit/537.36 (KHTML, like Gecko) Chrome/137.0.0.0 Safari/537.36" version="27.1.6">
  <diagram name="PÃ¡gina-1" id="1tBiJ0GqbcIFM3tQttI7">
    <mxGraphModel dx="872" dy="511" grid="1" gridSize="10" guides="1" tooltips="1" connect="1" arrows="1" fold="1" page="1" pageScale="1" pageWidth="3300" pageHeight="4681" math="0" shadow="0">
      <root>
        <mxCell id="0" />
        <mxCell id="1" parent="0" />
        <mxCell id="ZB56JFMJ42VNB87nPOwi-11" value="Estudiante" style="swimlane;fontStyle=1;align=center;verticalAlign=top;childLayout=stackLayout;horizontal=1;startSize=26;horizontalStack=0;resizeParent=1;resizeParentMax=0;resizeLast=0;collapsible=1;marginBottom=0;whiteSpace=wrap;html=1;" parent="1" vertex="1">
          <mxGeometry x="200" y="247" width="170" height="162" as="geometry" />
        </mxCell>
        <mxCell id="ZB56JFMJ42VNB87nPOwi-12" value="id_estudiante (int)&lt;div&gt;&lt;span style=&quot;background-color: transparent; color: light-dark(rgb(0, 0, 0), rgb(255, 255, 255));&quot;&gt;nombre (varchar)&lt;/span&gt;&lt;div&gt;apellido (varchar)&lt;/div&gt;&lt;div&gt;&lt;span style=&quot;color: light-dark(rgb(0, 0, 0), rgb(255, 255, 255)); background-color: transparent;&quot;&gt;ci (int)&lt;/span&gt;&lt;/div&gt;&lt;div&gt;email (vacrhar)&lt;span style=&quot;color: light-dark(rgb(0, 0, 0), rgb(255, 255, 255)); background-color: transparent;&quot;&gt;&lt;/span&gt;&lt;/div&gt;&lt;/div&gt;" style="text;strokeColor=none;fillColor=none;align=left;verticalAlign=top;spacingLeft=4;spacingRight=4;overflow=hidden;rotatable=0;points=[[0,0.5],[1,0.5]];portConstraint=eastwest;whiteSpace=wrap;html=1;" parent="ZB56JFMJ42VNB87nPOwi-11" vertex="1">
          <mxGeometry y="26" width="170" height="84" as="geometry" />
        </mxCell>
        <mxCell id="ZB56JFMJ42VNB87nPOwi-13" value="" style="line;strokeWidth=1;fillColor=none;align=left;verticalAlign=middle;spacingTop=-1;spacingLeft=3;spacingRight=3;rotatable=0;labelPosition=right;points=[];portConstraint=eastwest;strokeColor=inherit;" parent="ZB56JFMJ42VNB87nPOwi-11" vertex="1">
          <mxGeometry y="110" width="170" height="8" as="geometry" />
        </mxCell>
        <mxCell id="ZB56JFMJ42VNB87nPOwi-14" value="agregarUsuario(nombre, apellido, ci, email)" style="text;strokeColor=none;fillColor=none;align=left;verticalAlign=top;spacingLeft=4;spacingRight=4;overflow=hidden;rotatable=0;points=[[0,0.5],[1,0.5]];portConstraint=eastwest;whiteSpace=wrap;html=1;" parent="ZB56JFMJ42VNB87nPOwi-11" vertex="1">
          <mxGeometry y="118" width="170" height="44" as="geometry" />
        </mxCell>
        <mxCell id="ZB56JFMJ42VNB87nPOwi-15" value="Equipo" style="swimlane;fontStyle=1;align=center;verticalAlign=top;childLayout=stackLayout;horizontal=1;startSize=26;horizontalStack=0;resizeParent=1;resizeParentMax=0;resizeLast=0;collapsible=1;marginBottom=0;whiteSpace=wrap;html=1;" parent="1" vertex="1">
          <mxGeometry x="660" y="276" width="160" height="104" as="geometry" />
        </mxCell>
        <mxCell id="ZB56JFMJ42VNB87nPOwi-16" value="id_equipo (int)&lt;div&gt;nombre (varchar)&lt;/div&gt;" style="text;strokeColor=none;fillColor=none;align=left;verticalAlign=top;spacingLeft=4;spacingRight=4;overflow=hidden;rotatable=0;points=[[0,0.5],[1,0.5]];portConstraint=eastwest;whiteSpace=wrap;html=1;" parent="ZB56JFMJ42VNB87nPOwi-15" vertex="1">
          <mxGeometry y="26" width="160" height="44" as="geometry" />
        </mxCell>
        <mxCell id="ZB56JFMJ42VNB87nPOwi-17" value="" style="line;strokeWidth=1;fillColor=none;align=left;verticalAlign=middle;spacingTop=-1;spacingLeft=3;spacingRight=3;rotatable=0;labelPosition=right;points=[];portConstraint=eastwest;strokeColor=inherit;" parent="ZB56JFMJ42VNB87nPOwi-15" vertex="1">
          <mxGeometry y="70" width="160" height="8" as="geometry" />
        </mxCell>
        <mxCell id="ZB56JFMJ42VNB87nPOwi-18" value="agregarEquipo(nombre)" style="text;strokeColor=none;fillColor=none;align=left;verticalAlign=top;spacingLeft=4;spacingRight=4;overflow=hidden;rotatable=0;points=[[0,0.5],[1,0.5]];portConstraint=eastwest;whiteSpace=wrap;html=1;" parent="ZB56JFMJ42VNB87nPOwi-15" vertex="1">
          <mxGeometry y="78" width="160" height="26" as="geometry" />
        </mxCell>
        <mxCell id="ZB56JFMJ42VNB87nPOwi-19" value="Registro" style="swimlane;fontStyle=1;align=center;verticalAlign=top;childLayout=stackLayout;horizontal=1;startSize=26;horizontalStack=0;resizeParent=1;resizeParentMax=0;resizeLast=0;collapsible=1;marginBottom=0;whiteSpace=wrap;html=1;" parent="1" vertex="1">
          <mxGeometry x="440" y="247" width="160" height="200" as="geometry" />
        </mxCell>
        <mxCell id="ZB56JFMJ42VNB87nPOwi-20" value="&lt;div&gt;epochtime (int)&lt;/div&gt;id_equipo (int)&lt;div&gt;id_estudiante (int)&lt;/div&gt;&lt;div&gt;estado (boolean)&lt;/div&gt;&lt;div&gt;comentario (varchar)&lt;/div&gt;" style="text;strokeColor=none;fillColor=none;align=left;verticalAlign=top;spacingLeft=4;spacingRight=4;overflow=hidden;rotatable=0;points=[[0,0.5],[1,0.5]];portConstraint=eastwest;whiteSpace=wrap;html=1;" parent="ZB56JFMJ42VNB87nPOwi-19" vertex="1">
          <mxGeometry y="26" width="160" height="84" as="geometry" />
        </mxCell>
        <mxCell id="ZB56JFMJ42VNB87nPOwi-21" value="" style="line;strokeWidth=1;fillColor=none;align=left;verticalAlign=middle;spacingTop=-1;spacingLeft=3;spacingRight=3;rotatable=0;labelPosition=right;points=[];portConstraint=eastwest;strokeColor=inherit;" parent="ZB56JFMJ42VNB87nPOwi-19" vertex="1">
          <mxGeometry y="110" width="160" height="8" as="geometry" />
        </mxCell>
        <mxCell id="ZB56JFMJ42VNB87nPOwi-22" value="listar(epochtime, id_equipo, id_estudiante, estado, comentario)&lt;div&gt;filtrarFecha(fecha)&lt;/div&gt;&lt;div&gt;filtrarEstado(estado)&lt;/div&gt;" style="text;strokeColor=none;fillColor=none;align=left;verticalAlign=top;spacingLeft=4;spacingRight=4;overflow=hidden;rotatable=0;points=[[0,0.5],[1,0.5]];portConstraint=eastwest;whiteSpace=wrap;html=1;" parent="ZB56JFMJ42VNB87nPOwi-19" vertex="1">
          <mxGeometry y="118" width="160" height="82" as="geometry" />
        </mxCell>
        <mxCell id="ZB56JFMJ42VNB87nPOwi-23" value="" style="endArrow=classic;html=1;rounded=0;exitX=1;exitY=0.5;exitDx=0;exitDy=0;entryX=0;entryY=0.5;entryDx=0;entryDy=0;" parent="1" source="ZB56JFMJ42VNB87nPOwi-12" target="ZB56JFMJ42VNB87nPOwi-20" edge="1">
          <mxGeometry width="50" height="50" relative="1" as="geometry">
            <mxPoint x="420" y="390" as="sourcePoint" />
            <mxPoint x="470" y="340" as="targetPoint" />
          </mxGeometry>
        </mxCell>
        <mxCell id="ZB56JFMJ42VNB87nPOwi-24" value="" style="endArrow=classic;html=1;rounded=0;exitX=0;exitY=0.5;exitDx=0;exitDy=0;entryX=1;entryY=0.5;entryDx=0;entryDy=0;" parent="1" source="ZB56JFMJ42VNB87nPOwi-16" target="ZB56JFMJ42VNB87nPOwi-20" edge="1">
          <mxGeometry width="50" height="50" relative="1" as="geometry">
            <mxPoint x="500" y="390" as="sourcePoint" />
            <mxPoint x="550" y="340" as="targetPoint" />
          </mxGeometry>
        </mxCell>
        <mxCell id="ZB56JFMJ42VNB87nPOwi-25" value="1" style="text;html=1;align=center;verticalAlign=middle;whiteSpace=wrap;rounded=0;" parent="1" vertex="1">
          <mxGeometry x="400" y="290" width="60" height="30" as="geometry" />
        </mxCell>
        <mxCell id="ZB56JFMJ42VNB87nPOwi-26" value="1" style="text;html=1;align=center;verticalAlign=middle;whiteSpace=wrap;rounded=0;" parent="1" vertex="1">
          <mxGeometry x="350" y="290" width="60" height="30" as="geometry" />
        </mxCell>
        <mxCell id="ZB56JFMJ42VNB87nPOwi-27" value="1" style="text;html=1;align=center;verticalAlign=middle;whiteSpace=wrap;rounded=0;" parent="1" vertex="1">
          <mxGeometry x="580" y="290" width="60" height="30" as="geometry" />
        </mxCell>
        <mxCell id="ZB56JFMJ42VNB87nPOwi-28" value="1" style="text;html=1;align=center;verticalAlign=middle;whiteSpace=wrap;rounded=0;" parent="1" vertex="1">
          <mxGeometry x="620" y="320" width="60" height="30" as="geometry" />
        </mxCell>
      </root>
    </mxGraphModel>
  </diagram>
</mxfile>
